<svg xmlns:dc="http://purl.org/dc/elements/1.1/" xmlns:cc="http://creativecommons.org/ns#" xmlns:rdf="http://www.w3.org/1999/02/22-rdf-syntax-ns#" xmlns:svg="http://www.w3.org/2000/svg" xmlns="http://www.w3.org/2000/svg" xmlns:xlink="http://www.w3.org/1999/xlink" id="svg585049" viewBox="0 0 1024 768" height="768px" width="1024px" version="1.1">
  <metadata id="metadata585055">
    <rdf:rdf>
      <cc:work rdf:about="">
        <dc:format>image/svg+xml</dc:format>
        <dc:type rdf:resource="http://purl.org/dc/dcmitype/StillImage"></dc:type>
      </cc:work>
    </rdf:rdf>
  </metadata>
  <defs id="defs585053"></defs>
  <linearGradient spreadMethod="pad" y2="30%" x2="-10%" y1="120%" x1="30%" id="3d_gradient2-logo-53b57f02-aa9f-4d9b-a083-2246b3a170d1">
    <stop id="stop585030" stop-opacity="1" stop-color="#ffffff" offset="0%"></stop>
    <stop id="stop585032" stop-opacity="1" stop-color="#000000" offset="100%"></stop>
  </linearGradient>
  <linearGradient gradientTransform="rotate(-30)" spreadMethod="pad" y2="30%" x2="-10%" y1="120%" x1="30%" id="3d_gradient3-logo-53b57f02-aa9f-4d9b-a083-2246b3a170d1">
    <stop id="stop585035" stop-opacity="1" stop-color="#ffffff" offset="0%"></stop>
    <stop id="stop585037" stop-opacity="1" stop-color="#cccccc" offset="50%"></stop>
    <stop id="stop585039" stop-opacity="1" stop-color="#000000" offset="100%"></stop>
  </linearGradient>
  <g id="logo-group">
    <image xlink:href="" id="container" x="272" y="144" width="480" height="480" style="display: none;" transform="translate(0 0)"></image>
    <g id="logo-center" transform="translate(0 0)">
      <image xlink:href="" id="icon_container" x="0" y="0" style="display: none;"></image>
      <g id="slogan" style="font-style:oblique;font-weight:normal;font-size:32px;line-height:1;font-family:'Cormorant Infant';font-variant-ligatures:none;text-align:center;text-anchor:middle" transform="translate(0 0)"></g>
      <g id="title" style="font-style:normal;font-weight:700;font-size:72px;line-height:1;font-family:'Dancing Script';font-variant-ligatures:none;text-align:center;text-anchor:middle" transform="translate(0 0)">
        <path id="path585058" style="font-style:normal;font-weight:700;font-size:72px;line-height:1;font-family:'Dancing Script';font-variant-ligatures:none;text-align:center;text-anchor:middle" d="m 371.05944,6.264 q -3.6,-0.216 -4.896,-1.728 -1.296,-1.44 -1.296,-4.104 0,-3.744 1.872,-9.792 1.872,-6.048 4.824,-13.032 -6.984,0.648 -8.784,0.936 0.504,-5.688 10.584,-5.976 4.392,-12.096 7.848,-19.152 -1.152,-0.144 -2.592,-0.144 -6.264,0 -8.64,1.944 -2.376,1.872 -2.376,5.904 0,1.728 0.288,3.168 0.36,1.44 1.152,3.312 -6.264,-1.008 -6.264,-6.264 0,-3.672 2.736,-6.552 2.736,-2.952 7.488,-4.608 4.824,-1.656 10.656,-1.656 2.16,0 4.68,0.216 2.52,0.216 3.24,0.288 4.248,0.504 6.84,0.504 3.312,0 7.272,-1.08 -3.312,3.672 -5.544,5.04 -2.16,1.368 -4.392,1.368 -1.368,0 -4.536,-0.504 -4.392,-0.576 -5.832,-0.648 -1.296,3.096 -3.096,8.352 -1.728,5.184 -3.384,10.584 1.728,0.144 3.096,0.288 1.368,0.144 2.448,0.216 5.04,0.576 7.92,0.648 -1.152,1.584 -2.448,2.232 -1.296,0.648 -3.816,0.864 -2.52,0.216 -8.568,0.36 -1.224,4.392 -2.952,10.152 -1.944,6.696 -2.736,11.088 -0.792,4.392 -0.792,7.776 z" stroke-width="0" stroke-linejoin="miter" stroke-miterlimit="2" fill="#3b358a" stroke="#3b358a" transform="translate(0 298.144) translate(358.579815 50) scale(1) translate(-362.77944 51.552)"></path>
        <path id="path585060" style="font-style:normal;font-weight:700;font-size:72px;line-height:1;font-family:'Dancing Script';font-variant-ligatures:none;text-align:center;text-anchor:middle" d="m 394.32106,3.384 q -2.52,0 -4.176,-1.656 -1.728,-1.656 -1.728,-4.68 0,-4.176 3.024,-9.36 3.096,-5.184 7.848,-8.784 4.752,-3.6 9.504,-3.6 3.168,0 5.256,1.656 2.16,1.584 2.16,4.104 0,3.312 -4.104,3.456 2.592,0.792 2.592,2.16 0,0.504 -0.504,1.512 -0.504,1.008 -1.152,2.088 -1.152,1.872 -1.8,3.312 -0.648,1.368 -0.648,2.592 0,1.08 0.504,1.872 0.576,0.72 1.656,0.72 2.016,0 5.112,-2.808 3.168,-2.808 6.12,-8.424 l 1.368,1.368 q -2.664,5.976 -6.624,9.648 -3.96,3.6 -7.992,3.6 -2.88,0 -4.464,-1.944 -1.512,-1.872 -1.512,-4.32 -3.24,3.888 -5.544,5.688 -2.304,1.8 -4.896,1.8 z m 1.512,-3.672 q 2.52,0 5.832,-3.6 3.384,-3.672 7.632,-9.504 l 1.44,-1.944 q 0.216,-0.36 0.576,-0.36 l 0.288,0.072 q 0.36,-1.152 0.36,-2.664 0,-3.744 -3.024,-3.744 -3.168,0 -6.624,3.384 -3.456,3.384 -5.832,8.064 -2.304,4.68 -2.304,7.992 0,1.224 0.36,1.8 0.432,0.504 1.296,0.504 z" stroke-width="0" stroke-linejoin="miter" stroke-miterlimit="2" fill="#3c4194" stroke="#3c4194" transform="translate(0 298.144) translate(384.21743499999997 76.856) scale(1) translate(-388.41706 24.696)"></path>
        <path id="path585062" style="font-style:normal;font-weight:700;font-size:72px;line-height:1;font-family:'Dancing Script';font-variant-ligatures:none;text-align:center;text-anchor:middle" d="m 425.52294,2.736 q -1.512,0 -2.232,-2.304 -0.72,-2.304 -0.72,-5.832 0,-6.48 4.032,-17.568 4.104,-11.16 9.36,-19.8 5.256,-8.64 8.568,-8.64 1.44,0 2.232,1.584 0.864,1.584 0.864,3.528 0,3.312 -2.448,8.856 -2.376,5.544 -6.336,10.728 -3.888,5.112 -8.064,7.56 -2.448,6.48 -2.448,12.24 l 0.072,1.512 q 0.144,-0.216 0.648,-1.584 1.44,-3.744 3.024,-6.768 1.584,-3.024 4.32,-5.616 2.808,-2.664 6.48,-2.664 3.312,0 4.824,2.16 1.512,2.088 1.512,4.968 0,1.656 -0.432,3.096 -0.432,1.44 -1.296,3.672 -0.144,0.288 -0.576,1.368 -0.36,1.008 -0.576,1.872 -0.144,0.792 -0.144,1.44 0,2.304 1.944,2.304 1.584,0 3.744,-1.584 2.16,-1.584 4.248,-4.248 2.088,-2.664 3.6,-5.76 l 1.152,1.224 q -2.664,5.904 -6.48,9.576 -3.744,3.672 -8.064,3.672 -2.664,0 -4.176,-1.44 -1.44,-1.368 -1.44,-3.6 0,-1.44 1.008,-5.184 1.08,-3.528 1.08,-5.256 0,-3.024 -2.592,-3.024 -2.592,0 -4.392,2.736 -1.728,2.664 -3.96,7.92 -1.8,4.464 -3.168,6.624 -1.368,2.232 -3.168,2.232 z m 6.768,-26.496 q 2.952,-2.664 5.688,-6.912 2.736,-4.248 4.464,-8.208 1.728,-4.032 1.728,-5.76 -0.864,0.36 -3.096,3.528 -2.232,3.096 -4.68,7.848 -2.448,4.68 -4.104,9.504 z" stroke-width="0" stroke-linejoin="miter" stroke-miterlimit="2" fill="#3e4d9d" stroke="#3e4d9d" transform="translate(0 298.144) translate(418.371315 50.144) scale(1) translate(-422.57094 51.408)"></path>
        <path id="path585064" style="font-style:normal;font-weight:700;font-size:72px;line-height:1;font-family:'Dancing Script';font-variant-ligatures:none;text-align:center;text-anchor:middle" d="m 472.04506,-30.312 q -1.512,0 -2.592,-0.72 -1.008,-0.72 -1.008,-2.088 0,-1.656 1.8,-2.88 1.872,-1.296 3.96,-1.296 3.096,0 3.096,2.664 0,1.512 -1.656,2.952 -1.656,1.368 -3.6,1.368 z m -8.496,32.472 q -3.024,0 -4.68,-1.8 -1.656,-1.8 -1.656,-4.608 0,-2.88 1.584,-7.776 1.656,-4.968 4.104,-8.712 2.52,-3.744 5.04,-3.744 0.936,0 1.512,0.576 0.648,0.504 0.648,1.512 0,0.648 -0.576,1.8 -0.576,1.08 -1.872,3.168 -2.304,3.816 -3.672,6.768 -1.296,2.88 -1.296,5.472 0,2.232 0.792,3.024 0.792,0.792 2.448,0.792 5.688,0 11.304,-11.016 l 1.08,1.152 q -2.52,6.336 -6.408,9.864 -3.888,3.528 -8.352,3.528 z" stroke-width="0" stroke-linejoin="miter" stroke-miterlimit="2" fill="#3f59a7" stroke="#3f59a7" transform="translate(0 298.144) translate(453.0134349999999 64.256) scale(1) translate(-457.21306 37.296)"></path>
        <path id="path585066" style="font-style:normal;font-weight:700;font-size:72px;line-height:1;font-family:'Dancing Script';font-variant-ligatures:none;text-align:center;text-anchor:middle" d="m 513.02319,2.232 q -2.664,0 -4.104,-1.584 -1.44,-1.584 -1.44,-4.032 0,-1.152 0.288,-2.52 0.36,-1.44 0.792,-2.664 0.936,-2.952 0.936,-4.32 0,-2.16 -1.656,-2.16 -1.584,0 -3.672,2.304 -2.088,2.304 -5.616,7.56 -0.864,1.296 -2.592,4.392 l -1.368,2.448 q -1.296,0 -2.808,-0.504 -1.512,-0.504 -1.512,-1.368 0,-0.72 1.512,-4.608 1.44,-3.744 2.304,-6.552 0.936,-2.808 0.936,-4.68 0,-2.16 -1.512,-2.16 -1.944,0 -5.04,3.096 -3.096,3.024 -6.12,7.776 -3.024,4.68 -4.68,9.288 -1.296,0 -3.024,-0.72 -1.8,-0.72 -1.8,-1.224 l 4.608,-18.432 q 0.216,-0.792 1.512,-1.368 1.368,-0.648 2.448,-0.648 1.08,0 1.728,0.648 0.72,0.648 0.72,1.728 0,1.152 -1.008,5.184 3.456,-4.752 7.128,-7.848 3.672,-3.168 6.912,-3.168 2.448,0 3.456,1.728 1.08,1.728 1.08,4.32 0,1.368 -0.288,2.592 -0.288,1.152 -0.936,3.168 5.04,-7.416 10.44,-7.416 2.592,0 3.744,1.584 1.224,1.512 1.224,3.816 0,2.304 -1.44,6.48 -0.072,0.288 -0.576,1.872 -0.432,1.584 -0.432,2.592 0,1.944 1.8,1.944 2.592,0 5.04,-3.312 2.52,-3.312 4.68,-7.92 l 1.224,1.512 q -2.088,5.4 -5.4,9.288 -3.24,3.888 -7.488,3.888 z" stroke-width="0" stroke-linejoin="miter" stroke-miterlimit="2" fill="#4065b1" stroke="#4065b1" transform="translate(0 298.144) translate(468.64756499999993 77.648) scale(1) translate(-472.84719 23.904)"></path>
        <path id="path585068" style="font-style:normal;font-weight:700;font-size:72px;line-height:1;font-family:'Dancing Script';font-variant-ligatures:none;text-align:center;text-anchor:middle" d="m 537.15444,-30.312 q -1.512,0 -2.592,-0.72 -1.008,-0.72 -1.008,-2.088 0,-1.656 1.8,-2.88 1.872,-1.296 3.96,-1.296 3.096,0 3.096,2.664 0,1.512 -1.656,2.952 -1.656,1.368 -3.6,1.368 z m -8.496,32.472 q -3.024,0 -4.68,-1.8 -1.656,-1.8 -1.656,-4.608 0,-2.88 1.584,-7.776 1.656,-4.968 4.104,-8.712 2.52,-3.744 5.04,-3.744 0.936,0 1.512,0.576 0.648,0.504 0.648,1.512 0,0.648 -0.576,1.8 -0.576,1.08 -1.872,3.168 -2.304,3.816 -3.672,6.768 -1.296,2.88 -1.296,5.472 0,2.232 0.792,3.024 0.792,0.792 2.448,0.792 5.688,0 11.304,-11.016 l 1.08,1.152 q -2.52,6.336 -6.408,9.864 -3.888,3.528 -8.352,3.528 z" stroke-width="0" stroke-linejoin="miter" stroke-miterlimit="2" fill="#4271ba" stroke="#4271ba" transform="translate(0 298.144) translate(518.122815 64.256) scale(1) translate(-522.32244 37.296)"></path>
        <path id="path585070" style="font-style:normal;font-weight:700;font-size:72px;line-height:1;font-family:'Dancing Script';font-variant-ligatures:none;text-align:center;text-anchor:middle" d="m 546.26469,-10.224 q 0.864,-2.736 4.464,-3.6 3.6,-0.936 6.984,-0.936 3.096,0.072 7.704,0.216 4.68,0.144 7.848,0.288 -0.72,1.656 -3.312,2.808 -2.52,1.08 -5.472,1.08 -0.648,0 -3.24,-0.144 -3.312,-0.288 -5.76,-0.288 -2.376,0 -5.112,0.216 -2.736,0.216 -4.104,0.36 z" stroke-width="0" stroke-linejoin="miter" stroke-miterlimit="2" fill="#437dc4" stroke="#437dc4" transform="translate(0 298.144) translate(542.0650649999999 86.792) scale(1) translate(-546.26469 14.76)"></path>
        <path id="path585072" style="font-style:normal;font-weight:700;font-size:72px;line-height:1;font-family:'Dancing Script';font-variant-ligatures:none;text-align:center;text-anchor:middle" d="m 587.21919,3.168 q -4.536,0 -7.056,-2.448 -2.52,-2.448 -2.52,-6.264 0,-4.176 2.808,-9 2.808,-4.896 7.2,-8.136 4.392,-3.312 8.64,-3.312 2.232,0 3.744,1.152 1.512,1.08 1.512,3.672 0,3.456 -2.664,6.552 -2.664,3.024 -6.912,4.968 -4.176,1.944 -8.568,2.448 -0.144,0.72 -0.144,1.656 0,1.872 1.008,3.744 1.08,1.872 4.536,1.872 4.392,0 8.928,-3.528 4.608,-3.6 7.416,-8.928 l 1.44,1.152 q -2.88,6.48 -8.28,10.44 -5.328,3.96 -11.088,3.96 z m -3.024,-13.032 q 2.592,-0.288 5.76,-2.088 3.24,-1.8 5.472,-4.392 2.232,-2.664 2.232,-5.184 0,-0.792 -0.288,-1.08 -0.288,-0.288 -0.936,-0.288 -2.088,0 -4.608,2.016 -2.448,1.944 -4.536,4.968 -2.088,3.024 -3.096,6.048 z" stroke-width="0" stroke-linejoin="miter" stroke-miterlimit="2" fill="#4489ce" stroke="#4489ce" transform="translate(0 298.144) translate(573.4435649999999 75.56) scale(1) translate(-577.64319 25.992)"></path>
        <path id="path585074" style="font-style:normal;font-weight:700;font-size:72px;line-height:1;font-family:'Dancing Script';font-variant-ligatures:none;text-align:center;text-anchor:middle" d="m 627.74056,1.44 q -2.736,0 -4.248,-1.368 -1.512,-1.368 -1.512,-3.6 0,-0.936 0.288,-2.16 0.36,-1.224 0.72,-2.448 1.008,-3.312 1.008,-4.896 0,-1.44 -0.72,-2.088 -0.72,-0.72 -1.8,-0.72 -3.816,0 -7.704,4.824 -3.888,4.752 -8.352,12.096 -3.096,0 -4.68,-2.088 l 0.648,-1.8 q 4.248,-10.296 4.248,-15.264 0.576,-0.648 1.656,-1.152 1.08,-0.576 2.088,-0.576 1.224,0 1.872,0.576 0.648,0.576 0.648,1.584 0,1.944 -1.224,6.408 3.24,-4.32 6.696,-7.056 3.528,-2.736 6.912,-2.736 2.88,0 4.464,2.016 1.584,1.944 1.584,4.68 0,1.584 -0.432,3.024 -0.36,1.44 -1.152,3.24 -1.224,3.024 -1.224,4.536 0,1.08 0.504,1.584 0.504,0.504 1.224,0.504 2.376,0 5.112,-3.24 2.808,-3.312 5.04,-7.776 l 1.224,1.008 q -2.592,5.976 -5.76,9.432 -3.096,3.456 -7.128,3.456 z" stroke-width="0" stroke-linejoin="miter" stroke-miterlimit="2" fill="#4695d7" stroke="#4695d7" transform="translate(0 298.144) translate(596.5409349999999 80.52799999999999) scale(1) translate(-600.74056 21.024)"></path>
        <path id="path585076" style="font-style:normal;font-weight:700;font-size:72px;line-height:1;font-family:'Dancing Script';font-variant-ligatures:none;text-align:center;text-anchor:middle" d="m 641.10781,20.16 q -2.016,0 -3.456,-1.224 -1.44,-1.152 -1.44,-3.384 0,-2.808 2.088,-5.112 2.16,-2.304 4.968,-3.96 2.808,-1.584 7.416,-3.744 1.8,-4.536 2.88,-9 -5.832,7.344 -10.944,7.344 -2.88,0 -4.608,-2.016 -1.656,-2.016 -1.656,-5.328 0,-4.824 3.168,-9.144 3.168,-4.32 7.848,-6.912 4.68,-2.664 8.928,-2.664 2.232,0 3.384,0.792 1.224,0.792 1.224,1.944 0,0.72 -0.432,1.296 -0.432,0.576 -0.72,0.648 -0.72,-0.72 -1.44,-1.008 -0.72,-0.288 -1.8,-0.288 -3.528,0 -6.84,2.664 -3.312,2.592 -5.4,6.336 -2.016,3.672 -2.016,6.624 0,1.44 0.576,2.232 0.648,0.72 1.656,0.72 1.944,0 4.752,-2.52 2.88,-2.52 5.688,-6.48 0.792,-4.032 1.872,-5.76 1.08,-1.8 3.096,-1.8 0.936,0 2.088,0.288 0,1.872 -1.584,7.488 -1.584,5.616 -3.816,11.664 3.6,-1.512 6.912,-4.68 3.384,-3.24 4.824,-7.416 l 1.296,1.296 q -1.584,4.536 -5.688,8.208 -4.032,3.672 -8.28,5.616 -3.312,7.992 -6.912,12.6 -3.528,4.68 -7.632,4.68 z m -0.288,-3.312 q 1.44,0 3.744,-2.664 2.304,-2.664 4.752,-8.064 -4.68,2.304 -7.272,4.32 -2.592,2.088 -2.592,4.392 0,0.936 0.36,1.44 0.432,0.576 1.008,0.576 z" stroke-width="0" stroke-linejoin="miter" stroke-miterlimit="2" fill="#47a1e1" stroke="#47a1e1" transform="translate(0 298.144) translate(632.0121849999999 76.568) scale(1) translate(-636.21181 24.984)"></path>
      </g>
      <image xlink:href="" id="icon" x="0" y="0" style="display: none;"></image>
    </g>
  </g>
</svg>